<svg width="1200" height="720" viewBox="0 0 1200 720" fill="none" xmlns="http://www.w3.org/2000/svg">
  <defs>
    <linearGradient id="bg" x1="0" y1="0" x2="1200" y2="720" gradientUnits="userSpaceOnUse">
      <stop offset="0" stop-color="#0B1220"/>
      <stop offset="1" stop-color="#111827"/>
    </linearGradient>
    <linearGradient id="card" x1="0" y1="0" x2="0" y2="1">
      <stop offset="0" stop-color="#1F2937"/>
      <stop offset="1" stop-color="#111827"/>
    </linearGradient>
  </defs>
  <rect width="1200" height="720" rx="24" fill="url(#bg)"/>
  <rect x="40" y="36" width="1120" height="52" rx="12" fill="#0F172A" stroke="#1E293B"/>
  <circle cx="72" cy="62" r="7" fill="#334155"/>
  <circle cx="96" cy="62" r="7" fill="#334155"/>
  <circle cx="120" cy="62" r="7" fill="#334155"/>
  <rect x="168" y="50" width="300" height="24" rx="12" fill="#111827" stroke="#1F2937"/>
  <text x="56" y="132" fill="#E5E7EB" font-family="Inter, Arial, sans-serif" font-size="34" font-weight="700">Trazabilidad por cliente</text>
  <rect x="56" y="160" width="1088" height="1" fill="#1F2937"/>

  <rect x="56" y="188" width="344" height="156" rx="16" fill="url(#card)" stroke="#273449"/>
  <rect x="428" y="188" width="344" height="156" rx="16" fill="url(#card)" stroke="#273449"/>
  <rect x="800" y="188" width="344" height="156" rx="16" fill="url(#card)" stroke="#273449"/>

  <text x="80" y="224" fill="#9CA3AF" font-family="Inter, Arial, sans-serif" font-size="16">Operaciones hoy</text>
  <text x="80" y="272" fill="#F9FAFB" font-family="Inter, Arial, sans-serif" font-size="40" font-weight="700">1,284</text>
  <rect x="80" y="292" width="140" height="8" rx="4" fill="#6366F1"/>

  <text x="452" y="224" fill="#9CA3AF" font-family="Inter, Arial, sans-serif" font-size="16">Monto procesado</text>
  <text x="452" y="272" fill="#F9FAFB" font-family="Inter, Arial, sans-serif" font-size="40" font-weight="700">US$ 842K</text>
  <rect x="452" y="292" width="180" height="8" rx="4" fill="#6366F1"/>

  <text x="824" y="224" fill="#9CA3AF" font-family="Inter, Arial, sans-serif" font-size="16">Tasa de éxito</text>
  <text x="824" y="272" fill="#F9FAFB" font-family="Inter, Arial, sans-serif" font-size="40" font-weight="700">98.7%</text>
  <rect x="824" y="292" width="130" height="8" rx="4" fill="#6366F1"/>

  <rect x="56" y="376" width="1088" height="286" rx="16" fill="#0F172A" stroke="#273449"/>
  <rect x="80" y="410" width="1040" height="32" rx="8" fill="#111827"/>
  <text x="96" y="432" fill="#CBD5E1" font-family="Inter, Arial, sans-serif" font-size="14">ID</text>
  <text x="320" y="432" fill="#CBD5E1" font-family="Inter, Arial, sans-serif" font-size="14">Canal</text>
  <text x="560" y="432" fill="#CBD5E1" font-family="Inter, Arial, sans-serif" font-size="14">Importe</text>
  <text x="760" y="432" fill="#CBD5E1" font-family="Inter, Arial, sans-serif" font-size="14">Estado</text>
  <text x="940" y="432" fill="#CBD5E1" font-family="Inter, Arial, sans-serif" font-size="14">Actualización</text>

  <rect x="80" y="454" width="1040" height="44" rx="10" fill="#111827"/>
  <rect x="80" y="510" width="1040" height="44" rx="10" fill="#111827"/>
  <rect x="80" y="566" width="1040" height="44" rx="10" fill="#111827"/>

  <rect x="748" y="466" width="110" height="20" rx="10" fill="#6366F1"/>
  <rect x="748" y="522" width="110" height="20" rx="10" fill="#6366F1" opacity="0.8"/>
  <rect x="748" y="578" width="110" height="20" rx="10" fill="#6366F1" opacity="0.65"/>

  <text x="96" y="483" fill="#F3F4F6" font-family="Inter, Arial, sans-serif" font-size="14">OP-938420</text>
  <text x="96" y="539" fill="#F3F4F6" font-family="Inter, Arial, sans-serif" font-size="14">OP-938421</text>
  <text x="96" y="595" fill="#F3F4F6" font-family="Inter, Arial, sans-serif" font-size="14">OP-938422</text>
</svg>
